<?xml version="1.0" standalone="no"?>
<!DOCTYPE svg PUBLIC "-//W3C//DTD SVG 20010904//EN"
 "http://www.w3.org/TR/2001/REC-SVG-20010904/DTD/svg10.dtd">
<svg version="1.0" xmlns="http://www.w3.org/2000/svg"
 width="180.000000pt" height="180.000000pt" viewBox="0 0 180.000000 180.000000"
 preserveAspectRatio="xMidYMid meet">
<metadata>
Created by potrace 1.10, written by Peter Selinger 2001-2011
</metadata>
<g transform="translate(0.000000,180.000000) scale(0.100000,-0.100000)"
fill="#000000" stroke="none">
<path d="M670 1686 c-124 -37 -253 -107 -292 -158 -56 -73 -71 -118 -76 -216
-4 -91 -4 -94 23 -122 l28 -29 -28 -65 c-15 -36 -25 -72 -22 -80 3 -8 24 -20
47 -26 22 -6 38 -15 35 -21 -10 -16 5 -48 26 -54 10 -4 19 -14 19 -24 0 -10 7
-25 17 -32 9 -8 22 -29 30 -47 7 -18 21 -36 30 -39 16 -6 147 17 184 32 13 5
20 -8 37 -60 29 -86 28 -123 -4 -166 -53 -70 -83 -148 -118 -301 -19 -85 -38
-162 -42 -171 -3 -9 -4 -17 -1 -17 3 0 238 110 524 243 285 134 525 246 533
249 11 4 8 8 -11 16 -14 5 -51 35 -81 65 -58 56 -107 80 -261 127 -58 18 -72
28 -105 69 -34 42 -41 61 -56 150 l-18 102 27 87 c50 161 21 299 -85 402 -73
71 -129 94 -230 97 -48 1 -104 -4 -130 -11z m246 -45 c63 -28 138 -103 164
-163 26 -60 35 -137 25 -204 l-7 -48 -19 24 c-10 14 -19 34 -19 46 0 26 -52
76 -72 69 -8 -3 -23 3 -33 15 -20 22 -46 26 -76 10 -16 -9 -19 -7 -19 9 0 11
-5 23 -11 27 -6 4 -8 20 -5 39 5 26 1 39 -20 65 -18 21 -33 30 -46 27 -10 -3
-18 0 -18 7 0 35 -79 66 -103 41 -10 -9 -26 -12 -48 -9 -40 7 -89 -25 -89 -57
0 -10 -6 -19 -14 -19 -32 0 -63 -90 -39 -114 4 -4 8 -24 8 -46 1 -48 30 -83
62 -77 17 3 23 0 23 -14 0 -41 77 -64 111 -33 14 13 20 13 38 2 12 -7 21 -18
21 -24 0 -6 7 -17 15 -24 9 -7 13 -21 10 -30 -7 -23 47 -82 68 -74 9 3 25 -4
36 -15 25 -25 50 -27 77 -6 10 8 31 15 46 15 27 0 68 40 68 66 0 7 3 15 8 17
4 3 7 -25 7 -61 1 -37 9 -102 19 -145 16 -70 23 -83 70 -131 47 -49 62 -57
142 -81 49 -15 109 -38 134 -50 42 -22 129 -100 119 -108 -2 -2 -69 -34 -149
-72 -80 -37 -188 -88 -240 -112 -52 -25 -131 -62 -175 -83 -241 -114 -367
-171 -371 -167 -8 7 54 274 71 307 9 17 34 59 56 93 39 58 41 65 35 118 -6 60
-34 137 -57 156 -11 9 -35 7 -103 -8 -89 -20 -116 -16 -116 16 0 6 -9 20 -20
30 -11 10 -20 23 -20 30 0 6 -11 22 -25 35 -14 13 -25 30 -25 38 0 18 -29 52
-44 52 -35 1 -37 17 -12 75 14 31 26 61 26 65 0 5 -12 22 -26 40 -25 29 -26
35 -22 119 3 72 9 95 30 132 40 67 85 104 181 149 152 71 274 85 373 41z
m-184 -67 c3 -2 4 -12 1 -23 -5 -20 19 -35 46 -27 10 3 24 -5 35 -21 17 -23
18 -26 2 -35 -20 -11 -21 -48 -2 -48 22 0 27 -15 16 -44 -5 -15 -17 -26 -29
-26 -28 0 -47 -26 -32 -44 10 -12 7 -18 -20 -31 -29 -16 -33 -16 -41 -1 -13
23 -45 20 -51 -5 -4 -15 -11 -20 -22 -15 -9 3 -25 6 -36 6 -15 0 -18 5 -13 24
6 26 -16 41 -46 31 -12 -4 -23 3 -35 21 -16 25 -16 28 -1 36 24 14 21 48 -5
48 -17 0 -20 4 -15 23 3 12 6 28 6 36 0 8 7 11 19 8 23 -6 59 27 42 38 -19 11
-12 24 19 40 27 14 31 14 36 0 9 -23 51 -19 57 5 4 17 10 20 34 14 15 -4 31
-8 35 -10z m211 -221 c-1 -6 4 -17 12 -23 12 -10 18 -10 30 0 13 11 18 10 30
-6 17 -23 18 -31 5 -39 -15 -9 0 -35 21 -35 30 0 25 -48 -6 -60 -25 -10 -35
-40 -13 -40 7 0 2 -10 -10 -22 -18 -19 -26 -21 -41 -11 -20 12 -34 6 -43 -18
-8 -20 -58 -14 -58 7 0 20 -27 29 -44 15 -19 -16 -54 23 -37 43 14 16 4 46
-15 46 -8 0 -14 10 -14 25 0 15 6 25 14 25 7 0 19 7 27 16 10 13 10 17 -2 24
-12 8 -10 13 9 32 18 18 24 20 31 10 10 -17 45 -12 47 6 1 6 2 15 3 18 2 11
56 -1 54 -13z"/>
<path d="M589 1481 c-20 -20 -29 -39 -29 -61 0 -47 47 -90 97 -90 47 0 76 19
93 60 37 89 -90 161 -161 91z m118 -23 c18 -15 16 -63 -3 -82 -46 -46 -142 17
-106 70 22 33 77 39 109 12z"/>
<path d="M850 1280 c-33 -33 -30 -75 6 -107 33 -30 78 -30 109 2 30 30 32 64
4 99 -26 33 -88 37 -119 6z m93 -25 c34 -34 -18 -89 -62 -66 -23 13 -28 50 -9
69 17 17 54 15 71 -3z"/>
</g>
</svg>
